<svg width="482" height="110" viewBox="0 0 482 110" fill="none" xmlns="http://www.w3.org/2000/svg">
<path d="M137.941 47.7402L126.68 92H115.993L109.999 68.75C109.878 68.306 109.716 67.6299 109.515 66.7217C109.313 65.8135 109.101 64.8245 108.879 63.7549C108.657 62.665 108.455 61.6458 108.273 60.6973C108.112 59.7285 108.001 58.9616 107.94 58.3965C107.88 58.9616 107.759 59.7184 107.577 60.667C107.416 61.6156 107.224 62.6247 107.002 63.6943C106.8 64.764 106.598 65.763 106.396 66.6914C106.195 67.6198 106.033 68.3262 105.912 68.8105L99.9482 92H89.292L78 47.7402H87.2334L92.8945 71.8984C93.056 72.625 93.2376 73.4928 93.4395 74.502C93.6615 75.5111 93.8734 76.5706 94.0752 77.6807C94.2972 78.7705 94.4889 79.8301 94.6504 80.8594C94.832 81.8685 94.9632 82.7464 95.0439 83.4932C95.1449 82.7262 95.276 81.8382 95.4375 80.8291C95.599 79.7998 95.7705 78.7604 95.9521 77.7109C96.154 76.6413 96.3558 75.6523 96.5576 74.7441C96.7594 73.8359 96.9411 73.0993 97.1025 72.5342L103.551 47.7402H112.421L118.869 72.5342C119.01 73.0791 119.172 73.8158 119.354 74.7441C119.555 75.6523 119.757 76.6413 119.959 77.7109C120.161 78.7806 120.342 79.8301 120.504 80.8594C120.686 81.8685 120.817 82.7464 120.897 83.4932C121.039 82.484 121.23 81.263 121.473 79.8301C121.735 78.377 122.007 76.9339 122.29 75.501C122.593 74.068 122.855 72.8672 123.077 71.8984L128.708 47.7402H137.941ZM156.741 57.5186C159.869 57.5186 162.564 58.124 164.824 59.335C167.085 60.5257 168.83 62.2614 170.062 64.542C171.293 66.8226 171.908 69.6077 171.908 72.8975V77.3779H150.081C150.182 79.9814 150.959 82.0299 152.412 83.5234C153.885 84.9967 155.924 85.7334 158.527 85.7334C160.687 85.7334 162.665 85.5114 164.461 85.0674C166.257 84.6234 168.104 83.9574 170.001 83.0693V90.2139C168.326 91.0413 166.57 91.6468 164.733 92.0303C162.917 92.4137 160.707 92.6055 158.104 92.6055C154.713 92.6055 151.706 91.9798 149.082 90.7285C146.479 89.4772 144.43 87.57 142.937 85.0068C141.463 82.4437 140.727 79.2145 140.727 75.3193C140.727 71.3636 141.393 68.0739 142.725 65.4502C144.077 62.8063 145.954 60.8285 148.355 59.5166C150.757 58.1846 153.552 57.5186 156.741 57.5186ZM156.802 64.0879C155.006 64.0879 153.512 64.6631 152.321 65.8135C151.151 66.9639 150.475 68.7702 150.293 71.2324H163.25C163.23 69.86 162.978 68.639 162.493 67.5693C162.029 66.4997 161.323 65.652 160.374 65.0264C159.446 64.4007 158.255 64.0879 156.802 64.0879ZM193.281 57.458C197.822 57.458 201.304 58.4469 203.726 60.4248C206.147 62.4027 207.358 65.4098 207.358 69.4463V92H200.91L199.124 87.3984H198.882C197.913 88.6094 196.924 89.5983 195.915 90.3652C194.906 91.1322 193.745 91.6973 192.434 92.0605C191.122 92.4238 189.527 92.6055 187.65 92.6055C185.652 92.6055 183.856 92.222 182.262 91.4551C180.688 90.6882 179.446 89.5176 178.538 87.9434C177.63 86.349 177.176 84.3307 177.176 81.8887C177.176 78.2962 178.437 75.6523 180.96 73.957C183.483 72.2415 187.267 71.293 192.312 71.1113L198.186 70.9297V69.4463C198.186 67.6702 197.721 66.3685 196.793 65.541C195.865 64.7135 194.573 64.2998 192.918 64.2998C191.283 64.2998 189.679 64.5319 188.104 64.9961C186.53 65.4603 184.956 66.0456 183.382 66.752L180.324 60.5156C182.12 59.5671 184.129 58.8203 186.349 58.2754C188.589 57.7305 190.9 57.458 193.281 57.458ZM198.186 76.3184L194.613 76.4395C191.626 76.5202 189.548 77.055 188.377 78.0439C187.227 79.0329 186.651 80.3346 186.651 81.9492C186.651 83.362 187.065 84.3711 187.893 84.9766C188.72 85.5618 189.8 85.8545 191.132 85.8545C193.11 85.8545 194.775 85.2692 196.127 84.0986C197.499 82.9281 198.186 81.263 198.186 79.1035V76.3184ZM231.153 85.249C232.162 85.249 233.141 85.1481 234.09 84.9463C235.059 84.7445 236.017 84.4922 236.966 84.1895V91.0615C235.977 91.5055 234.746 91.8688 233.272 92.1514C231.819 92.4541 230.225 92.6055 228.489 92.6055C226.471 92.6055 224.655 92.2826 223.04 91.6367C221.446 90.9707 220.184 89.8304 219.256 88.2158C218.348 86.5811 217.894 84.3105 217.894 81.4043V65.0869H213.474V61.1816L218.56 58.0938L221.224 50.9492H227.127V58.1543H236.603V65.0869H227.127V81.4043C227.127 82.696 227.49 83.6647 228.217 84.3105C228.964 84.9362 229.942 85.249 231.153 85.249ZM253.071 44.8945V54.4912C253.071 56.1663 253.011 57.7607 252.89 59.2744C252.789 60.7881 252.708 61.8577 252.647 62.4834H253.132C253.858 61.3128 254.716 60.3643 255.705 59.6377C256.714 58.9111 257.824 58.3763 259.035 58.0332C260.246 57.6901 261.548 57.5186 262.94 57.5186C265.382 57.5186 267.512 57.9525 269.328 58.8203C271.145 59.668 272.557 61.0101 273.566 62.8467C274.576 64.6631 275.08 67.0244 275.08 69.9307V92H265.847V72.2314C265.847 69.8096 265.403 67.9831 264.515 66.752C263.627 65.5208 262.254 64.9053 260.397 64.9053C258.541 64.9053 257.077 65.3392 256.008 66.207C254.938 67.0547 254.181 68.3161 253.737 69.9912C253.293 71.6462 253.071 73.6745 253.071 76.0762V92H243.838V44.8945H253.071ZM298.542 57.5186C301.67 57.5186 304.365 58.124 306.625 59.335C308.885 60.5257 310.631 62.2614 311.862 64.542C313.093 66.8226 313.709 69.6077 313.709 72.8975V77.3779H291.882C291.983 79.9814 292.76 82.0299 294.213 83.5234C295.686 84.9967 297.725 85.7334 300.328 85.7334C302.488 85.7334 304.465 85.5114 306.262 85.0674C308.058 84.6234 309.905 83.9574 311.802 83.0693V90.2139C310.127 91.0413 308.371 91.6468 306.534 92.0303C304.718 92.4137 302.508 92.6055 299.904 92.6055C296.514 92.6055 293.507 91.9798 290.883 90.7285C288.279 89.4772 286.231 87.57 284.737 85.0068C283.264 82.4437 282.527 79.2145 282.527 75.3193C282.527 71.3636 283.193 68.0739 284.525 65.4502C285.878 62.8063 287.755 60.8285 290.156 59.5166C292.558 58.1846 295.353 57.5186 298.542 57.5186ZM298.603 64.0879C296.806 64.0879 295.313 64.6631 294.122 65.8135C292.951 66.9639 292.275 68.7702 292.094 71.2324H305.051C305.031 69.86 304.778 68.639 304.294 67.5693C303.83 66.4997 303.123 65.652 302.175 65.0264C301.246 64.4007 300.056 64.0879 298.603 64.0879ZM340.107 57.5186C340.572 57.5186 341.106 57.5488 341.712 57.6094C342.338 57.6497 342.842 57.7103 343.226 57.791L342.529 66.4492C342.227 66.3483 341.793 66.2777 341.228 66.2373C340.683 66.1768 340.208 66.1465 339.805 66.1465C338.614 66.1465 337.453 66.2979 336.323 66.6006C335.213 66.9033 334.214 67.3978 333.326 68.084C332.438 68.75 331.732 69.638 331.207 70.748C330.702 71.8379 330.45 73.18 330.45 74.7744V92H321.217V58.1543H328.21L329.572 63.8457H330.026C330.692 62.6953 331.52 61.6458 332.509 60.6973C333.518 59.7285 334.658 58.9616 335.93 58.3965C337.221 57.8112 338.614 57.5186 340.107 57.5186ZM393.298 92L390.089 81.4648H373.953L370.744 92H360.633L376.254 47.5586H387.728L403.409 92H393.298ZM387.849 73.5938L384.64 63.3008C384.438 62.6146 384.165 61.7367 383.822 60.667C383.499 59.5771 383.166 58.4772 382.823 57.3672C382.5 56.237 382.238 55.2581 382.036 54.4307C381.834 55.2581 381.552 56.2874 381.188 57.5186C380.845 58.7295 380.512 59.8799 380.189 60.9697C379.867 62.0596 379.634 62.8366 379.493 63.3008L376.314 73.5938H387.849ZM427.113 57.5186C430.928 57.5186 434.006 59.002 436.347 61.9688C438.708 64.9355 439.889 69.2848 439.889 75.0166C439.889 78.8512 439.334 82.0804 438.224 84.7041C437.114 87.3076 435.58 89.2754 433.622 90.6074C431.664 91.9395 429.414 92.6055 426.871 92.6055C425.236 92.6055 423.834 92.4036 422.663 92C421.493 91.5762 420.493 91.0413 419.666 90.3955C418.839 89.7295 418.122 89.0231 417.517 88.2764H417.032C417.194 89.0837 417.315 89.9111 417.396 90.7588C417.476 91.6064 417.517 92.4339 417.517 93.2412V106.895H408.283V58.1543H415.791L417.093 62.5439H417.517C418.122 61.6357 418.859 60.7982 419.727 60.0312C420.594 59.2643 421.634 58.6589 422.845 58.2148C424.076 57.7507 425.499 57.5186 427.113 57.5186ZM424.146 64.9053C422.532 64.9053 421.25 65.2383 420.302 65.9043C419.353 66.5703 418.657 67.5693 418.213 68.9014C417.789 70.2334 417.557 71.9186 417.517 73.957V74.9561C417.517 77.1357 417.718 78.9824 418.122 80.4961C418.546 82.0098 419.242 83.1602 420.211 83.9473C421.2 84.7344 422.552 85.1279 424.268 85.1279C425.68 85.1279 426.841 84.7344 427.749 83.9473C428.657 83.1602 429.333 82.0098 429.777 80.4961C430.242 78.9622 430.474 77.0954 430.474 74.8955C430.474 71.5856 429.959 69.0931 428.93 67.418C427.9 65.7428 426.306 64.9053 424.146 64.9053ZM466.348 57.5186C470.162 57.5186 473.24 59.002 475.581 61.9688C477.942 64.9355 479.123 69.2848 479.123 75.0166C479.123 78.8512 478.568 82.0804 477.458 84.7041C476.348 87.3076 474.814 89.2754 472.856 90.6074C470.899 91.9395 468.648 92.6055 466.105 92.6055C464.471 92.6055 463.068 92.4036 461.897 92C460.727 91.5762 459.728 91.0413 458.9 90.3955C458.073 89.7295 457.356 89.0231 456.751 88.2764H456.267C456.428 89.0837 456.549 89.9111 456.63 90.7588C456.711 91.6064 456.751 92.4339 456.751 93.2412V106.895H447.518V58.1543H455.025L456.327 62.5439H456.751C457.356 61.6357 458.093 60.7982 458.961 60.0312C459.829 59.2643 460.868 58.6589 462.079 58.2148C463.31 57.7507 464.733 57.5186 466.348 57.5186ZM463.381 64.9053C461.766 64.9053 460.485 65.2383 459.536 65.9043C458.588 66.5703 457.891 67.5693 457.447 68.9014C457.023 70.2334 456.791 71.9186 456.751 73.957V74.9561C456.751 77.1357 456.953 78.9824 457.356 80.4961C457.78 82.0098 458.477 83.1602 459.445 83.9473C460.434 84.7344 461.786 85.1279 463.502 85.1279C464.915 85.1279 466.075 84.7344 466.983 83.9473C467.892 83.1602 468.568 82.0098 469.012 80.4961C469.476 78.9622 469.708 77.0954 469.708 74.8955C469.708 71.5856 469.193 69.0931 468.164 67.418C467.135 65.7428 465.54 64.9053 463.381 64.9053Z" fill="#2196F3"/>
<path fill-rule="evenodd" clip-rule="evenodd" d="M55.2759 9.21443C40.1435 9.21443 27.8179 21.4345 27.6379 36.5159C27.7099 37.074 27.764 37.6317 27.7819 38.2076L28.0157 44.9745L21.61 47.2061C14.1967 49.7884 9.21265 56.7442 9.21265 64.501C9.21265 74.6691 17.4718 82.9298 27.6379 82.9298H73.7012V92.1443H27.6379C12.3795 92.1443 0 79.7624 0 64.501C0 52.4249 7.79102 42.2568 18.5871 38.4953C18.5787 38.2342 18.5428 37.981 18.5068 37.7283L18.5068 37.7282C18.466 37.4411 18.4253 37.1545 18.4253 36.8577C18.4253 16.5033 34.9251 0 55.2759 0C69.077 0 80.9616 7.68483 87.2772 18.9149C88.8517 18.6359 90.4621 18.4289 92.1265 18.4289C103.532 18.4289 113.227 25.3829 117.435 35.2552H106.913C103.514 30.559 98.0572 27.6433 92.1265 27.6433C91.2268 27.6433 90.237 27.7513 88.9055 27.9854L82.4549 29.1461L79.2431 23.432C74.313 14.6676 65.1363 9.21443 55.2759 9.21443Z" fill="#2196F3"/>
</svg>
