<svg width="124" height="68" viewBox="0 0 124 68" fill="none" xmlns="http://www.w3.org/2000/svg">
<path d="M118 29.9995H15.6563L36.8283 8.8275C38.3903 7.2655 38.3903 4.7335 36.8283 3.1715C35.2663 1.6095 32.7333 1.6095 31.1713 3.1715L3.17128 31.1715C1.60928 32.7335 1.60928 35.2665 3.17128 36.8275L31.1713 64.8275C31.9523 65.6085 32.9763 65.9995 34.0003 65.9995C35.0233 65.9995 36.0473 65.6085 36.8283 64.8275C38.3903 63.2655 38.3903 60.7325 36.8283 59.1715L15.6563 37.9995H118C120.208 37.9995 122 36.2085 122 33.9995C122 31.7905 120.209 29.9995 118 29.9995Z" fill="#222222"/>
<path fill-rule="evenodd" clip-rule="evenodd" d="M20.4847 27.9995H118C121.314 27.9995 124 30.6859 124 33.9995C124 37.3134 121.313 39.9995 118 39.9995H20.4847L38.242 57.7568V57.7568C40.5855 60.0993 40.5851 63.8991 38.2425 66.2417C37.0718 67.4124 35.5326 67.9995 34.0003 67.9995C32.4672 67.9995 30.928 67.4126 29.7571 66.2417L1.75751 38.2422V38.2422C-0.585933 35.8997 -0.585589 32.0999 1.75705 29.7573L29.7571 1.75729C32.1001 -0.585762 35.8994 -0.585762 38.2425 1.75729C40.5855 4.10034 40.5855 7.89866 38.2425 10.2417L20.4847 27.9995ZM15.6563 29.9995L36.8283 8.8275C38.3903 7.2655 38.3903 4.7335 36.8283 3.1715C35.2663 1.6095 32.7333 1.6095 31.1713 3.1715L3.17128 31.1715C1.60928 32.7335 1.60928 35.2665 3.17128 36.8275L31.1713 64.8275C31.9523 65.6085 32.9763 65.9995 34.0003 65.9995C35.0233 65.9995 36.0473 65.6085 36.8283 64.8275C38.3903 63.2655 38.3903 60.7325 36.8283 59.1715L15.6563 37.9995H118C120.208 37.9995 122 36.2085 122 33.9995C122 31.7905 120.209 29.9995 118 29.9995H15.6563Z" fill="#222222"/>
</svg>
