<svg width="48" height="57" viewBox="0 0 48 57" fill="none" xmlns="http://www.w3.org/2000/svg">
<path d="M5.33333 8.5C2.38773 8.5 0 10.9 0 13.8333V51.1667C0 54.1 2.38773 56.5 5.33333 56.5H21.3333H26.6667H42.6667C45.6133 56.5 48 54.1 48 51.1667V13.8333C48 10.9 45.6133 8.5 42.6667 8.5H26.6667H21.3333H5.33333Z" fill="#BDC3C7"/>
<path d="M5.33333 5.83337C2.38773 5.83337 0 8.22111 0 11.1667V48.5C0 51.4467 2.38773 53.8334 5.33333 53.8334H21.3333H26.6667H42.6667C45.6133 53.8334 48 51.4467 48 48.5V11.1667C48 8.22111 45.6133 5.83337 42.6667 5.83337H26.6667H21.3333H5.33333Z" fill="#ECF0F1"/>
<path d="M5.33333 5.83337C2.38773 5.83337 0 8.23337 0 11.1667V19.1667H48V11.1667C48 8.23337 45.6133 5.83337 42.6667 5.83337H26.6667H21.3333H5.33333Z" fill="#E74C3C"/>
<path d="M12 12.5C12 13.0253 11.8965 13.5454 11.6955 14.0307C11.4945 14.516 11.1999 14.957 10.8284 15.3284C10.457 15.6999 10.016 15.9945 9.53073 16.1955C9.04543 16.3965 8.52529 16.5 8 16.5C7.47471 16.5 6.95457 16.3965 6.46927 16.1955C5.98396 15.9945 5.54301 15.6999 5.17157 15.3284C4.80014 14.957 4.5055 14.516 4.30448 14.0307C4.10346 13.5454 4 13.0253 4 12.5C4 11.9747 4.10346 11.4546 4.30448 10.9693C4.5055 10.484 4.80014 10.043 5.17157 9.67157C5.54301 9.30014 5.98396 9.0055 6.46927 8.80448C6.95457 8.60346 7.47471 8.5 8 8.5C8.52529 8.5 9.04543 8.60346 9.53073 8.80448C10.016 9.0055 10.457 9.30014 10.8284 9.67157C11.1999 10.043 11.4945 10.484 11.6955 10.9693C11.8965 11.4546 12 11.9747 12 12.5V12.5Z" fill="#C0392B"/>
<path d="M8.00004 0.5C6.52724 0.5 5.33337 1.69387 5.33337 3.16667V11.1667C5.33337 12.6395 6.52724 13.8333 8.00004 13.8333C9.47284 13.8333 10.6667 12.6395 10.6667 11.1667V3.16667C10.6667 1.69387 9.47284 0.5 8.00004 0.5Z" fill="#BDC3C7"/>
<path d="M44 12.5C44 13.0253 43.8965 13.5454 43.6955 14.0307C43.4945 14.516 43.1999 14.957 42.8284 15.3284C42.457 15.6999 42.016 15.9945 41.5307 16.1955C41.0454 16.3965 40.5253 16.5 40 16.5C39.4747 16.5 38.9546 16.3965 38.4693 16.1955C37.984 15.9945 37.543 15.6999 37.1716 15.3284C36.8001 14.957 36.5055 14.516 36.3045 14.0307C36.1035 13.5454 36 13.0253 36 12.5C36 11.9747 36.1035 11.4546 36.3045 10.9693C36.5055 10.484 36.8001 10.043 37.1716 9.67157C37.543 9.30014 37.984 9.0055 38.4693 8.80448C38.9546 8.60346 39.4747 8.5 40 8.5C40.5253 8.5 41.0454 8.60346 41.5307 8.80448C42.016 9.0055 42.457 9.30014 42.8284 9.67157C43.1999 10.043 43.4945 10.484 43.6955 10.9693C43.8965 11.4546 44 11.9747 44 12.5V12.5Z" fill="#C0392B"/>
<path d="M40 0.5C38.528 0.5 37.3334 1.56667 37.3334 3.16667V11.1667C37.3334 12.5 38.528 13.8333 40 13.8333C41.472 13.8333 42.6667 12.5 42.6667 11.1667V3.16667C42.6667 1.56667 41.472 0.5 40 0.5Z" fill="#BDC3C7"/>
<path d="M5.33337 27.1666V32.5H10.6667V27.1666H5.33337ZM13.3334 27.1666V32.5H18.6667V27.1666H13.3334ZM21.3334 27.1666V32.5H26.6667V27.1666H21.3334ZM29.3334 27.1666V32.5H34.6667V27.1666H29.3334ZM37.3334 27.1666V32.5H42.6667V27.1666H37.3334Z" fill="#BDC3C7"/>
<path d="M5.33337 35.1666V40.5H10.6667V35.1666H5.33337ZM13.3334 35.1666V40.5H18.6667V35.1666H13.3334ZM21.3334 35.1666V40.5H26.6667V35.1666H21.3334ZM29.3334 35.1666V40.5H34.6667V35.1666H29.3334ZM37.3334 35.1666V40.5H42.6667V35.1666H37.3334Z" fill="#BDC3C7"/>
<path d="M5.33337 43.1666V48.5H10.6667V43.1666H5.33337ZM13.3334 43.1666V48.5H18.6667V43.1666H13.3334ZM21.3334 43.1666V48.5H26.6667V43.1666H21.3334ZM29.3334 43.1666V48.5H34.6667V43.1666H29.3334ZM37.3334 43.1666V48.5H42.6667V43.1666H37.3334Z" fill="#BDC3C7"/>
<path d="M48 19.1666H0V21.8333H48V19.1666Z" fill="#C0392B"/>
</svg>
