<svg width="88" height="88" viewBox="0 0 88 88" fill="none" xmlns="http://www.w3.org/2000/svg">
<g filter="url(#filter0_d_843_49)">
<path d="M63.1727 43.7285C63.1727 54.2692 54.6256 62.8167 44.0824 62.8167C33.5396 62.8167 24.9929 54.2692 24.9929 43.7285C24.9929 33.1832 33.5396 24.6371 44.0824 24.6371C54.6256 24.6371 63.1727 33.1832 63.1727 43.7285Z" fill="#F8A62C"/>
<path d="M44.083 19.4634C42.7538 19.4634 41.6769 18.3841 41.6769 17.0555V6.58683C41.6769 5.25829 42.7538 4.17883 44.083 4.17883C45.4122 4.17883 46.4891 5.25829 46.4891 6.58683V17.0555C46.4891 18.3841 45.4122 19.4634 44.083 19.4634Z" fill="#F8A62C"/>
<path d="M44.083 83.8027C42.7538 83.8027 41.6769 82.7258 41.6769 81.3969V70.9275C41.6769 69.5986 42.7538 68.5217 44.083 68.5217C45.4122 68.5217 46.4891 69.5986 46.4891 70.9275V81.3969C46.4891 82.7258 45.4122 83.8027 44.083 83.8027Z" fill="#F8A62C"/>
<path d="M81.4879 46.3984H71.0194C69.69 46.3984 68.6132 45.319 68.6132 43.9904C68.6132 42.6619 69.69 41.5825 71.0194 41.5825H81.4879C82.8172 41.5825 83.8941 42.6619 83.8941 43.9904C83.8941 45.319 82.8172 46.3984 81.4879 46.3984Z" fill="#F8A62C"/>
<path d="M6.67749 46.3984H17.1461C18.4753 46.3984 19.5522 45.319 19.5522 43.9904C19.5522 42.6619 18.4753 41.5825 17.1461 41.5825H6.67749C5.34831 41.5825 4.27142 42.6619 4.27142 43.9904C4.27142 45.319 5.34831 46.3984 6.67749 46.3984Z" fill="#F8A62C"/>
<path d="M25.0363 27.3516C24.4206 27.3516 23.8049 27.1153 23.3347 26.649L15.932 19.2398C14.9924 18.301 14.9924 16.7808 15.932 15.8419C16.8722 14.903 18.3942 14.903 19.3344 15.8419L26.7372 23.2447C27.6774 24.1836 27.6774 25.7037 26.7372 26.649C26.2671 27.1153 25.652 27.3516 25.0363 27.3516Z" fill="#F8A62C"/>
<path d="M70.5317 72.8474C69.9161 72.8474 69.3006 72.6122 68.8311 72.1423L61.429 64.7392C60.4886 63.7998 60.4886 62.2764 61.429 61.3375C62.3684 60.3976 63.8912 60.3976 64.8306 61.3375L72.2328 68.7401C73.1732 69.68 73.1732 71.2033 72.2328 72.1423C71.7633 72.6122 71.1478 72.8474 70.5317 72.8474Z" fill="#F8A62C"/>
<path d="M17.6335 72.8474C17.0178 72.8474 16.402 72.6122 15.932 72.1423C14.9924 71.2033 14.9924 69.679 15.932 68.7401L23.3347 61.3375C24.2749 60.3976 25.7977 60.3976 26.7372 61.3375C27.6774 62.2764 27.6774 63.8002 26.7372 64.7392L19.3344 72.1423C18.8643 72.6122 18.2486 72.8474 17.6335 72.8474Z" fill="#F8A62C"/>
<path d="M63.1296 27.3516C62.514 27.3516 61.8984 27.1153 61.429 26.649C60.4886 25.7037 60.4886 24.1836 61.429 23.2447L68.8311 15.8419C69.7691 14.903 71.2934 14.903 72.2328 15.8419C73.1732 16.7808 73.1732 18.301 72.2328 19.2398L64.8306 26.649C64.3617 27.1153 63.7456 27.3516 63.1296 27.3516Z" fill="#F8A62C"/>
</g>
<defs>
<filter id="filter0_d_843_49" x="0" y="0" width="88" height="88" filterUnits="userSpaceOnUse" color-interpolation-filters="sRGB">
<feFlood flood-opacity="0" result="BackgroundImageFix"/>
<feColorMatrix in="SourceAlpha" type="matrix" values="0 0 0 0 0 0 0 0 0 0 0 0 0 0 0 0 0 0 127 0" result="hardAlpha"/>
<feOffset/>
<feGaussianBlur stdDeviation="2"/>
<feColorMatrix type="matrix" values="0 0 0 0 0 0 0 0 0 0 0 0 0 0 0 0 0 0 0.3 0"/>
<feBlend mode="normal" in2="BackgroundImageFix" result="effect1_dropShadow_843_49"/>
<feBlend mode="normal" in="SourceGraphic" in2="effect1_dropShadow_843_49" result="shape"/>
</filter>
</defs>
</svg>
