<svg width="28" height="27" viewBox="0 0 23 22" fill="none" xmlns="http://www.w3.org/2000/svg">
<path fill-rule="evenodd" clip-rule="evenodd" d="M11.4415 6.12686e-05C11.3758 0.00108545 11.311 0.0150025 11.2507 0.0410769C11.1905 0.0671513 11.1359 0.104884 11.0902 0.152039C11.0445 0.199194 11.0086 0.254862 10.9844 0.315918C10.9602 0.376974 10.9483 0.442212 10.9493 0.507874V1.7442C10.9483 1.81046 10.9606 1.8762 10.9853 1.93768C11.01 1.99917 11.0467 2.05517 11.0932 2.10236C11.1397 2.14954 11.1952 2.18701 11.2563 2.21259C11.3174 2.23816 11.383 2.25128 11.4493 2.25128C11.5155 2.25128 11.5811 2.23816 11.6423 2.21259C11.7034 2.18701 11.7588 2.14954 11.8054 2.10236C11.8519 2.05517 11.8886 1.99917 11.9133 1.93768C11.938 1.8762 11.9502 1.81046 11.9493 1.7442V0.507874C11.9503 0.440898 11.9379 0.374401 11.9128 0.312317C11.8876 0.250233 11.8502 0.193788 11.8029 0.146424C11.7555 0.0990587 11.6991 0.0617092 11.637 0.0365603C11.5749 0.0114114 11.5084 -0.000986417 11.4415 6.12686e-05V6.12686e-05Z" fill="#545773"/>
<path d="M11.0977 1.60718C10.7385 1.75488 10.3986 2.02873 10.0859 2.42743C9.61354 3.02963 9.19524 3.89064 8.84766 4.94104C8.1584 7.02404 7.65154 9.8362 7.64453 12.8493C6.81483 11.5332 5.47479 10.7305 3.91211 10.7283C2.27515 10.7283 0.80572 11.6447 0 13.0582C0.11951 6.89253 4.97785 1.90048 11.0977 1.60718Z" fill="#FF766C"/>
<path d="M11.7549 1.60718C17.8728 1.90038 22.73 6.88933 22.8525 13.0524C22.0454 11.6412 20.5761 10.7292 18.9404 10.7283C17.3801 10.7283 16.104 11.5383 15.2748 12.8519C15.2678 9.83963 14.6976 7.02354 14.0068 4.94104C13.6584 3.89064 13.2416 3.02963 12.7686 2.42743C12.4555 2.02873 12.1145 1.75488 11.7549 1.60718Z" fill="#43B6C2"/>
<path fill-rule="evenodd" clip-rule="evenodd" d="M11.442 9.96442C11.1658 9.96842 10.9455 10.196 10.9498 10.4722V19.4664C10.9498 20.2995 10.2844 20.9644 9.44977 20.9644C8.61517 20.9644 7.94977 20.2995 7.94977 19.4664C7.95977 18.7902 6.94021 18.7902 6.94977 19.4664C6.94977 20.8404 8.07523 21.9644 9.44977 21.9644C11.0649 21.9694 11.9505 20.8011 11.9498 19.4664V10.4722C11.9538 10.1899 11.7242 9.96 11.442 9.96442Z" fill="#545773"/>
<path d="M11.4415 9.96448C11.3758 9.9655 11.311 9.97945 11.2507 10.0055C11.1905 10.0316 11.1359 10.0693 11.0902 10.1165C11.0445 10.1636 11.0086 10.2193 10.9844 10.2803C10.9602 10.3414 10.9483 10.4066 10.9493 10.4723V11.4313C11.1145 11.4125 11.2804 11.4001 11.4493 11.4001C11.6178 11.4003 11.7843 11.4145 11.9493 11.4333V10.4723C11.9503 10.4054 11.9379 10.3389 11.9128 10.2768C11.8876 10.2147 11.8502 10.1583 11.8029 10.1109C11.7555 10.0636 11.6991 10.0262 11.637 10.0011C11.5749 9.9759 11.5084 9.96349 11.4415 9.96454V9.96448Z" fill="#474A62"/>
<path d="M11.4495 1.57983C11.9816 1.57983 12.4874 1.90169 12.9495 2.48999C13.4115 3.07819 13.8261 3.9311 14.1721 4.9743C14.8586 7.044 15.2729 9.8635 15.2795 12.8689C14.4503 11.5501 13.014 10.7305 11.4495 10.7283C9.88732 10.7283 8.45399 11.5506 7.62524 12.8669C7.63224 9.86228 8.04603 7.0435 8.73071 4.9743C9.07592 3.9311 9.49001 3.07819 9.95142 2.48999C10.4128 1.90169 10.9173 1.57983 11.4495 1.57983V1.57983Z" fill="#FFD158"/>
</svg>
