<svg width="22" height="20" viewBox="0 0 22 20" fill="none" xmlns="http://www.w3.org/2000/svg">
<g clip-path="url(#clip0_865_2)">
<path d="M21.56 15.2999L13.89 2.57994C13.5798 2.09475 13.1525 1.69546 12.6475 1.41888C12.1424 1.14229 11.5758 0.997314 11 0.997314C10.4241 0.997314 9.85756 1.14229 9.3525 1.41888C8.84743 1.69546 8.42012 2.09475 8.10998 2.57994L0.439978 15.2999C0.169032 15.7516 0.0217669 16.2666 0.0129899 16.7932C0.00421297 17.3198 0.134233 17.8395 0.389978 18.2999C0.685657 18.8182 1.11364 19.2486 1.63018 19.5473C2.14672 19.846 2.7333 20.0022 3.32998 19.9999H18.67C19.2627 20.0062 19.8467 19.8561 20.3629 19.5646C20.879 19.2732 21.3092 18.8507 21.61 18.3399C21.8732 17.8747 22.0074 17.3476 21.9986 16.8131C21.9898 16.2786 21.8384 15.7562 21.56 15.2999ZM19.86 17.3499C19.7398 17.5565 19.5654 17.7263 19.3556 17.8408C19.1459 17.9554 18.9088 18.0104 18.67 17.9999H3.32998C3.0912 18.0104 2.85409 17.9554 2.64434 17.8408C2.43458 17.7263 2.26016 17.5565 2.13998 17.3499C2.05221 17.1979 2.006 17.0254 2.006 16.8499C2.006 16.6744 2.05221 16.5019 2.13998 16.3499L9.81998 3.61994C9.95798 3.43764 10.1363 3.2898 10.3411 3.18801C10.5458 3.08622 10.7713 3.03325 11 3.03325C11.2286 3.03325 11.4541 3.08622 11.6589 3.18801C11.8636 3.2898 12.042 3.43764 12.18 3.61994L19.85 16.3399C19.9411 16.4922 19.9901 16.666 19.9919 16.8435C19.9936 17.021 19.9481 17.1958 19.86 17.3499Z" fill="#4CAF50"/>
<path d="M11 16C11.5523 16 12 15.5523 12 15C12 14.4477 11.5523 14 11 14C10.4477 14 10 14.4477 10 15C10 15.5523 10.4477 16 11 16Z" fill="#4CAF50"/>
<path d="M11 6C10.7348 6 10.4804 6.12292 10.2929 6.34171C10.1054 6.5605 10 6.85725 10 7.16667V11.8333C10 12.1428 10.1054 12.4395 10.2929 12.6583C10.4804 12.8771 10.7348 13 11 13C11.2652 13 11.5196 12.8771 11.7071 12.6583C11.8946 12.4395 12 12.1428 12 11.8333V7.16667C12 6.85725 11.8946 6.5605 11.7071 6.34171C11.5196 6.12292 11.2652 6 11 6Z" fill="#4CAF50"/>
</g>
<defs>
<clipPath id="clip0_865_2">
<rect width="22" height="20" fill="white"/>
</clipPath>
</defs>
</svg>
