<svg width="22" height="20" viewBox="0 0 22 20" fill="none" xmlns="http://www.w3.org/2000/svg">
<g clip-path="url(#clip0_818_2)">
<path d="M21.56 15.3L13.89 2.58C13.5798 2.09481 13.1525 1.69552 12.6475 1.41894C12.1424 1.14235 11.5758 0.997375 11 0.997375C10.4241 0.997375 9.85756 1.14235 9.3525 1.41894C8.84743 1.69552 8.42012 2.09481 8.10998 2.58L0.439978 15.3C0.169032 15.7517 0.0217669 16.2667 0.0129899 16.7933C0.00421297 17.3199 0.134233 17.8396 0.389978 18.3C0.685657 18.8183 1.11364 19.2487 1.63018 19.5474C2.14672 19.8461 2.7333 20.0023 3.32998 20H18.67C19.2627 20.0063 19.8467 19.8562 20.3629 19.5647C20.879 19.2733 21.3092 18.8508 21.61 18.34C21.8732 17.8748 22.0074 17.3477 21.9986 16.8132C21.9898 16.2787 21.8384 15.7563 21.56 15.3ZM19.86 17.35C19.7398 17.5566 19.5654 17.7264 19.3556 17.8409C19.1459 17.9555 18.9088 18.0105 18.67 18H3.32998C3.0912 18.0105 2.85409 17.9555 2.64434 17.8409C2.43458 17.7264 2.26016 17.5566 2.13998 17.35C2.05221 17.198 2.006 17.0255 2.006 16.85C2.006 16.6745 2.05221 16.502 2.13998 16.35L9.81998 3.62C9.95798 3.4377 10.1363 3.28986 10.3411 3.18807C10.5458 3.08628 10.7713 3.03331 11 3.03331C11.2286 3.03331 11.4541 3.08628 11.6589 3.18807C11.8636 3.28986 12.042 3.4377 12.18 3.62L19.85 16.34C19.9411 16.4923 19.9901 16.6661 19.9919 16.8436C19.9936 17.0211 19.9481 17.1959 19.86 17.35Z" fill="#F44336"/>
<path d="M11 16C11.5523 16 12 15.5523 12 15C12 14.4477 11.5523 14 11 14C10.4477 14 10 14.4477 10 15C10 15.5523 10.4477 16 11 16Z" fill="#F44336"/>
<path d="M11 6C10.7348 6 10.4804 6.12292 10.2929 6.34171C10.1054 6.5605 10 6.85725 10 7.16667V11.8333C10 12.1428 10.1054 12.4395 10.2929 12.6583C10.4804 12.8771 10.7348 13 11 13C11.2652 13 11.5196 12.8771 11.7071 12.6583C11.8946 12.4395 12 12.1428 12 11.8333V7.16667C12 6.85725 11.8946 6.5605 11.7071 6.34171C11.5196 6.12292 11.2652 6 11 6Z" fill="#F44336"/>
</g>
<defs>
<clipPath id="clip0_818_2">
<rect width="22" height="20" fill="white"/>
</clipPath>
</defs>
</svg>
