<svg width="24" height="24" viewBox="0 0 248 248" fill="none" xmlns="http://www.w3.org/2000/svg">
<path d="M96.3989 0C43.1642 0 0 43.1592 0 96.3883C0 149.617 43.1641 192.777 96.3993 192.777C116.87 192.777 135.855 186.392 151.46 175.517L151.472 175.506L222.966 246.992C224.292 248.319 226.402 248.353 227.763 246.992L247.032 227.726C248.358 226.399 248.29 224.2 247.02 222.929L175.537 151.454C186.413 135.839 192.798 116.857 192.798 96.3883C192.798 43.1592 149.634 0 96.3989 0ZM96.3989 170.097C55.6843 170.097 22.6818 137.098 22.6818 96.3883C22.6818 55.6783 55.6847 22.6797 96.3989 22.6797C137.113 22.6797 170.116 55.6783 170.116 96.3883C170.116 137.098 137.113 170.097 96.3989 170.097Z" fill="#fff"/>
</svg>
