<svg width="80px" height="80px" viewBox="0 0 218 171" fill="none" xmlns="http://www.w3.org/2000/svg">
<path d="M134.619 49.6132C134.601 49.6132 134.584 49.6132 134.568 49.6132C134.575 49.2799 134.619 48.9466 134.619 48.6132C134.619 21.9066 112.976 0.266624 86.2786 0.266624C59.5813 0.266624 37.9387 21.9066 37.9387 48.6132C37.9387 48.6399 37.944 48.6666 37.944 48.7066C17.0013 49.6799 0.309326 66.9067 0.309326 88.0933C0.309326 109.901 17.9866 127.579 39.7933 127.579H134.619C156.148 127.579 173.601 110.125 173.601 88.6C173.601 67.0666 156.148 49.6132 134.619 49.6132Z" fill="#8DD9EE"/>
<path d="M178.787 92.4133C178.769 92.4133 178.752 92.4267 178.736 92.4267C178.743 92.08 178.787 91.7599 178.787 91.4133C178.787 64.7199 157.144 43.0799 130.447 43.0799C103.749 43.0799 82.1066 64.7199 82.1066 91.4133C82.1066 91.4533 82.1119 91.4799 82.1119 91.5066C61.1706 92.4799 44.4773 109.72 44.4773 130.903C44.4773 152.709 62.1546 170.387 83.9613 170.387H178.787C200.316 170.387 217.769 152.933 217.769 131.404C217.769 109.873 200.316 92.4133 178.787 92.4133Z" fill="#62C6EF"/>
</svg>
