<svg width="80px" height="80px" viewBox="0 0 167 167" fill="none" xmlns="http://www.w3.org/2000/svg">
<path d="M123.523 82.9334C123.523 104.937 105.681 122.78 83.672 122.78C61.664 122.78 43.8226 104.937 43.8226 82.9334C43.8226 60.9201 61.664 43.08 83.672 43.08C105.681 43.08 123.523 60.9201 123.523 82.9334Z" fill="#F8A62C"/>
<path d="M83.6733 32.28C80.8986 32.28 78.6506 30.0268 78.6506 27.2535V5.40008C78.6506 2.62675 80.8986 0.373386 83.6733 0.373386C86.448 0.373386 88.696 2.62675 88.696 5.40008V27.2535C88.696 30.0268 86.448 32.28 83.6733 32.28Z" fill="#F8A62C"/>
<path d="M83.6733 166.588C80.8986 166.588 78.6506 164.34 78.6506 161.566V139.711C78.6506 136.937 80.8986 134.689 83.6733 134.689C86.448 134.689 88.696 136.937 88.696 139.711V161.566C88.696 164.34 86.448 166.588 83.6733 166.588Z" fill="#F8A62C"/>
<path d="M161.756 88.5068H139.903C137.128 88.5068 134.88 86.2535 134.88 83.4801C134.88 80.7068 137.128 78.4536 139.903 78.4536H161.756C164.531 78.4536 166.779 80.7068 166.779 83.4801C166.779 86.2535 164.531 88.5068 161.756 88.5068Z" fill="#F8A62C"/>
<path d="M5.58932 88.5068H27.4426C30.2173 88.5068 32.4653 86.2535 32.4653 83.4801C32.4653 80.7068 30.2173 78.4536 27.4426 78.4536H5.58932C2.81466 78.4536 0.56665 80.7068 0.56665 83.4801C0.56665 86.2535 2.81466 88.5068 5.58932 88.5068Z" fill="#F8A62C"/>
<path d="M43.9133 48.7466C42.628 48.7466 41.3427 48.2532 40.3613 47.2799L24.908 31.8132C22.9467 29.8533 22.9467 26.68 24.908 24.72C26.8707 22.76 30.048 22.76 32.0107 24.72L47.464 40.1733C49.4267 42.1333 49.4267 45.3066 47.464 47.2799C46.4827 48.2532 45.1987 48.7466 43.9133 48.7466Z" fill="#F8A62C"/>
<path d="M138.885 143.719C137.6 143.719 136.315 143.228 135.335 142.247L119.883 126.793C117.92 124.832 117.92 121.652 119.883 119.692C121.844 117.73 125.023 117.73 126.984 119.692L142.436 135.145C144.399 137.107 144.399 140.287 142.436 142.247C141.456 143.228 140.171 143.719 138.885 143.719Z" fill="#F8A62C"/>
<path d="M28.46 143.719C27.1747 143.719 25.8893 143.228 24.908 142.247C22.9467 140.287 22.9467 137.105 24.908 135.145L40.3613 119.692C42.324 117.73 45.5027 117.73 47.464 119.692C49.4267 121.652 49.4267 124.833 47.464 126.793L32.0107 142.247C31.0293 143.228 29.744 143.719 28.46 143.719Z" fill="#F8A62C"/>
<path d="M123.433 48.7466C122.148 48.7466 120.863 48.2532 119.883 47.2799C117.92 45.3066 117.92 42.1333 119.883 40.1733L135.335 24.72C137.293 22.76 140.475 22.76 142.436 24.72C144.399 26.68 144.399 29.8533 142.436 31.8132L126.984 47.2799C126.005 48.2532 124.719 48.7466 123.433 48.7466Z" fill="#F8A62C"/>
</svg>
