<svg width="80px" height="80px" viewBox="0 0 174 192" fill="none" xmlns="http://www.w3.org/2000/svg">
<path d="M134.787 49.8175C134.769 49.8175 134.752 49.8201 134.736 49.8201C134.743 49.4828 134.787 49.1548 134.787 48.8162C134.787 22.1188 113.144 0.476135 86.4466 0.476135C59.7493 0.476135 38.1066 22.1188 38.1066 48.8162C38.1066 48.8468 38.1119 48.8775 38.1119 48.9095C17.1706 49.8815 0.477295 67.1175 0.477295 88.3002C0.477295 110.107 18.1546 127.784 39.9613 127.784H134.787C156.316 127.784 173.769 110.331 173.769 88.8015C173.769 67.2708 156.316 49.8175 134.787 49.8175Z" fill="#62C6EF"/>
<path d="M30.2307 127.125C28.3813 127.125 26.8813 125.627 26.8813 123.776V101.489C26.8813 99.6388 28.3813 98.1401 30.2307 98.1401C32.0787 98.1401 33.5786 99.6388 33.5786 101.489V123.776C33.5786 125.627 32.0787 127.125 30.2307 127.125Z" fill="#B4E6F5"/>
<path d="M30.2307 191.127C28.3813 191.127 26.8813 189.628 26.8813 187.777V142.023C26.8813 140.172 28.3813 138.673 30.2307 138.673C32.0787 138.673 33.5786 140.172 33.5786 142.023V187.777C33.5786 189.628 32.0787 191.127 30.2307 191.127Z" fill="#B4E6F5"/>
<path d="M58.676 114.457C56.828 114.457 55.328 112.96 55.328 111.109V78.6121C55.328 76.7614 56.828 75.2641 58.676 75.2641C60.5253 75.2641 62.0253 76.7614 62.0253 78.6121V111.109C62.0253 112.96 60.5253 114.457 58.676 114.457Z" fill="#B4E6F5"/>
<path d="M58.676 151.789C56.828 151.789 55.328 150.292 55.328 148.441V127.268C55.328 125.417 56.828 123.92 58.676 123.92C60.5253 123.92 62.0253 125.417 62.0253 127.268V148.441C62.0253 150.292 60.5253 151.789 58.676 151.789Z" fill="#B4E6F5"/>
<path d="M58.676 191.127C56.828 191.127 55.328 189.628 55.328 187.777V170.849C55.328 168.999 56.828 167.501 58.676 167.501C60.5253 167.501 62.0253 168.999 62.0253 170.849V187.777C62.0253 189.628 60.5253 191.127 58.676 191.127Z" fill="#B4E6F5"/>
<path d="M87.1226 191.127C85.2733 191.127 83.7747 189.628 83.7747 187.777V142.023C83.7747 140.172 85.2733 138.673 87.1226 138.673C88.972 138.673 90.4706 140.172 90.4706 142.023V187.777C90.4706 189.628 88.972 191.127 87.1226 191.127Z" fill="#B4E6F5"/>
<path d="M115.571 191.127C113.721 191.127 112.223 189.628 112.223 187.777V170.849C112.223 168.999 113.721 167.501 115.571 167.501C117.42 167.501 118.92 168.999 118.92 170.849V187.777C118.92 189.628 117.42 191.127 115.571 191.127Z" fill="#B4E6F5"/>
<path d="M144.017 191.127C142.168 191.127 140.669 189.628 140.669 187.777V152.757C140.669 150.907 142.168 149.409 144.017 149.409C145.867 149.409 147.365 150.907 147.365 152.757V187.777C147.365 189.628 145.867 191.127 144.017 191.127Z" fill="#B4E6F5"/>
<path d="M144.017 133.488C142.168 133.488 140.669 131.991 140.669 130.14V114.271C140.669 112.42 142.168 110.923 144.017 110.923C145.867 110.923 147.365 112.42 147.365 114.271V130.14C147.365 131.991 145.867 133.488 144.017 133.488Z" fill="#B4E6F5"/>
<path d="M115.571 160.252C113.721 160.252 112.223 158.755 112.223 156.904V88.7561C112.223 86.9055 113.721 85.4081 115.571 85.4081C117.42 85.4081 118.92 86.9055 118.92 88.7561V156.904C118.92 158.755 117.42 160.252 115.571 160.252Z" fill="#B4E6F5"/>
<path d="M87.1226 126.02C85.2733 126.02 83.7747 124.521 83.7747 122.671V102.593C83.7747 100.743 85.2733 99.2454 87.1226 99.2454C88.972 99.2454 90.4706 100.743 90.4706 102.593V122.671C90.4706 124.521 88.972 126.02 87.1226 126.02Z" fill="#B4E6F5"/>
</svg>
