<svg width="80" height="59" viewBox="0 0 80 59" fill="none" xmlns="http://www.w3.org/2000/svg">
<path d="M66.6453 23.9343C66.6453 30.3133 61.4731 35.4861 55.0923 35.4861C48.7122 35.4861 43.54 30.3133 43.54 23.9343C43.54 17.5526 48.7122 12.3807 55.0923 12.3807C61.4731 12.3807 66.6453 17.5526 66.6453 23.9343Z" fill="#F8A62C"/>
<path d="M55.0929 9.24983C54.2884 9.24983 53.6367 8.59656 53.6367 7.7926V1.45725C53.6367 0.653252 54.2884 0 55.0929 0C55.8971 0 56.5488 0.653252 56.5488 1.45725V7.7926C56.5488 8.59656 55.8971 9.24983 55.0929 9.24983Z" fill="#F8A62C"/>
<path d="M55.0929 48.1861C54.2884 48.1861 53.6367 47.5344 53.6367 46.7299V40.3941C53.6367 39.5902 54.2884 38.9385 55.0929 38.9385C55.8971 38.9385 56.5488 39.5902 56.5488 40.3941V46.7299C56.5488 47.5344 55.8971 48.1861 55.0929 48.1861Z" fill="#F8A62C"/>
<path d="M77.729 25.5501H71.3938C70.5893 25.5501 69.9376 24.8968 69.9376 24.0929C69.9376 23.2888 70.5893 22.6356 71.3938 22.6356H77.729C78.5335 22.6356 79.1852 23.2888 79.1852 24.0929C79.1852 24.8968 78.5335 25.5501 77.729 25.5501Z" fill="#F8A62C"/>
<path d="M32.4562 25.5501H38.7914C39.5958 25.5501 40.2475 24.8968 40.2475 24.0929C40.2475 23.2888 39.5958 22.6356 38.7914 22.6356H32.4562C31.6517 22.6356 31 23.2888 31 24.0929C31 24.8968 31.6517 25.5501 32.4562 25.5501Z" fill="#F8A62C"/>
<path d="M43.5663 14.0236C43.1935 14.0236 42.821 13.8805 42.5366 13.5984L38.0566 9.1146C37.488 8.54634 37.488 7.62645 38.0566 7.05824C38.6255 6.49003 39.5466 6.49003 40.1157 7.05824L44.5955 11.5382C45.1646 12.1064 45.1646 13.0263 44.5955 13.5984C44.3111 13.8805 43.9389 14.0236 43.5663 14.0236Z" fill="#F8A62C"/>
<path d="M71.0989 41.5561C70.7261 41.5561 70.3535 41.4141 70.0695 41.1294L65.5898 36.6495C65.0208 36.081 65.0208 35.1591 65.5898 34.5909C66.1584 34.0218 67.08 34.0218 67.6485 34.5909L72.1281 39.0708C72.6972 39.6393 72.6972 40.5612 72.1281 41.1294C71.8439 41.4141 71.4714 41.5561 71.0989 41.5561Z" fill="#F8A62C"/>
<path d="M39.0862 41.5561C38.7137 41.5561 38.341 41.4141 38.0566 41.1294C37.488 40.5612 37.488 39.6389 38.0566 39.0708L42.5366 34.5909C43.1054 34.0218 44.027 34.0218 44.5955 34.5909C45.1646 35.1591 45.1646 36.0813 44.5955 36.6495L40.1157 41.1294C39.8311 41.4141 39.4585 41.5561 39.0862 41.5561Z" fill="#F8A62C"/>
<path d="M66.6193 14.0236C66.2465 14.0236 65.874 13.8805 65.5898 13.5984C65.0208 13.0263 65.0208 12.1064 65.5898 11.5382L70.0695 7.05824C70.6374 6.49003 71.5596 6.49003 72.1281 7.05824C72.6972 7.62645 72.6972 8.54634 72.1281 9.1146L67.6485 13.5984C67.365 13.8805 66.9918 14.0236 66.6193 14.0236Z" fill="#F8A62C"/>
<path d="M51.928 28.9918C51.9214 28.9918 51.9149 28.9922 51.9079 28.9922C51.911 28.8624 51.928 28.7367 51.928 28.6058C51.928 18.3289 43.5605 10 33.2384 10C22.9163 10 14.5487 18.3289 14.5487 28.6058C14.5487 28.6181 14.5507 28.63 14.5507 28.6418C6.45363 29.0164 0 35.6503 0 43.8033C0 52.1961 6.83459 59 15.2658 59H51.928C60.2521 59 67 52.2823 67 43.9957C67 35.7092 60.2521 28.9918 51.928 28.9918Z" fill="#62C6EF"/>
</svg>
