<svg width="80px" height="80px" viewBox="0 0 236 199" fill="none" xmlns="http://www.w3.org/2000/svg">
<path d="M167.573 50.1521C167.56 50.1521 167.533 50.1534 167.52 50.1534C167.533 49.8161 167.573 49.4881 167.573 49.1495C167.573 22.4521 145.933 0.809464 119.233 0.809464C92.536 0.809464 70.8933 22.4521 70.8933 49.1495C70.8933 49.1815 70.8987 49.2121 70.8987 49.2428C49.9573 50.2161 33.264 67.4521 33.264 88.6348C33.264 110.441 50.9414 128.12 72.748 128.12H167.573C189.107 128.12 206.56 110.665 206.56 89.1348C206.56 67.6055 189.107 50.1521 167.573 50.1521Z" fill="#62C6EF"/>
<path d="M179.28 152.04H60.2147C57.4427 152.04 55.192 149.787 55.192 147.013C55.192 144.24 57.4427 141.987 60.2147 141.987H179.28C182.053 141.987 184.307 144.24 184.307 147.013C184.307 149.787 182.053 152.04 179.28 152.04Z" fill="#B4E6F5"/>
<path d="M230.747 152.04H205.453C202.68 152.04 200.427 149.787 200.427 147.013C200.427 144.24 202.68 141.987 205.453 141.987H230.747C233.52 141.987 235.76 144.24 235.76 147.013C235.76 149.787 233.52 152.04 230.747 152.04Z" fill="#B4E6F5"/>
<path d="M225.773 198.493H39.4639C36.6919 198.493 34.4412 196.24 34.4412 193.48C34.4412 190.707 36.6919 188.453 39.4639 188.453H225.773C228.547 188.453 230.787 190.707 230.787 193.48C230.787 196.24 228.547 198.493 225.773 198.493Z" fill="#B4E6F5"/>
<path d="M145.48 175.267H5.696C2.92266 175.267 0.67334 173.013 0.67334 170.24C0.67334 167.467 2.92266 165.213 5.696 165.213H145.48C148.253 165.213 150.507 167.467 150.507 170.24C150.507 173.013 148.253 175.267 145.48 175.267Z" fill="#B4E6F5"/>
<path d="M214.96 175.267H174.053C171.28 175.267 169.04 173.013 169.04 170.24C169.04 167.467 171.28 165.213 174.053 165.213H214.96C217.733 165.213 219.987 167.467 219.987 170.24C219.987 173.013 217.733 175.267 214.96 175.267Z" fill="#B4E6F5"/>
</svg>
