<svg width="80px" height="80px" viewBox="0 0 223 180" fill="none" xmlns="http://www.w3.org/2000/svg">
<path d="M134.309 49.3413C134.292 49.3413 134.275 49.3439 134.259 49.3439C134.265 49.0066 134.309 48.6786 134.309 48.34C134.309 21.6426 112.667 0 85.9693 0C59.2719 0 37.6293 21.6426 37.6293 48.34C37.6293 48.372 37.6346 48.4013 37.6346 48.4333C16.6933 49.4053 0 66.6413 0 87.824C0 109.631 17.6773 127.309 39.484 127.309H134.309C155.839 127.309 173.292 109.855 173.292 88.3253C173.292 66.7947 155.839 49.3413 134.309 49.3413Z" fill="#62C6EF"/>
<path d="M199.415 80.0333H121.352C117.655 80.0333 114.656 77.0347 114.656 73.3374C114.656 69.6387 117.655 66.64 121.352 66.64H199.415C204.996 66.64 209.537 62.0987 209.537 56.516C209.537 50.9347 204.996 46.3934 199.415 46.3934H189.497C185.799 46.3934 182.8 43.3947 182.8 39.696C182.8 35.9987 185.799 33 189.497 33H199.415C212.383 33 222.932 43.548 222.932 56.516C222.932 69.4853 212.383 80.0333 199.415 80.0333Z" fill="#B4E6F5"/>
<path d="M173.971 160.253C157.436 160.253 143.983 146.801 143.983 130.269C143.983 118.965 153.179 109.769 164.483 109.769C175.787 109.769 184.981 118.965 184.981 130.269V133.719C184.981 137.417 181.983 140.416 178.284 140.416C174.587 140.416 171.588 137.417 171.588 133.719V130.269C171.588 126.352 168.4 123.164 164.483 123.164C160.565 123.164 157.376 126.352 157.376 130.269C157.376 139.419 164.823 146.86 173.971 146.86C183.12 146.86 190.563 139.419 190.563 130.269V123.415C190.563 110.908 180.391 100.735 167.883 100.735H62.6973C58.9987 100.735 56 97.7373 56 94.0387C56 90.34 58.9987 87.3413 62.6973 87.3413H167.883C187.773 87.3413 203.956 103.524 203.956 123.415V130.269C203.956 146.801 190.504 160.253 173.971 160.253Z" fill="#B4E6F5"/>
<rect x="43.6986" y="141" width="11" height="40" rx="5.5" transform="rotate(36.3322 43.6986 141)" fill="#62C6EF"/>
<rect x="82" y="141" width="11" height="40" rx="5.5" transform="rotate(36.3322 82 141)" fill="#62C6EF"/>
<rect x="121" y="141" width="11" height="40" rx="5.5" transform="rotate(36.3322 121 141)" fill="#62C6EF"/>
</svg>
