<svg width="80px" height="80px" viewBox="0 0 174 206" fill="none" xmlns="http://www.w3.org/2000/svg">
<path d="M134.304 49.3427C134.291 49.3427 134.277 49.344 134.264 49.344C134.264 49.0066 134.304 48.6787 134.304 48.34C134.304 21.6427 112.664 2.28882e-05 85.9693 2.28882e-05C59.2719 2.28882e-05 37.6293 21.6427 37.6293 48.34C37.6293 48.372 37.6346 48.4027 37.6346 48.4334C16.692 49.4067 0 66.6427 0 87.8253C0 109.632 17.6773 127.309 39.484 127.309H134.304C155.837 127.309 173.291 109.856 173.291 88.3253C173.291 66.796 155.837 49.3427 134.304 49.3427Z" fill="#62C6EF"/>
<rect x="32" y="154" width="4.70174" height="29.9736" rx="2.35087" transform="rotate(-90 32 154)" fill="#B4E6F5"/>
<rect x="37.0812" y="140.553" width="4.70174" height="29.9736" rx="2.35087" transform="rotate(-30 37.0812 140.553)" fill="#B4E6F5"/>
<rect x="52.0312" y="138" width="4.70174" height="29.9736" rx="2.35087" transform="rotate(30 52.0312 138)" fill="#B4E6F5"/>
<rect x="74" y="154" width="4.70174" height="29.9736" rx="2.35087" transform="rotate(-90 74 154)" fill="#B4E6F5"/>
<rect x="79.0812" y="140.553" width="4.70174" height="29.9736" rx="2.35087" transform="rotate(-30 79.0812 140.553)" fill="#B4E6F5"/>
<rect x="94.0312" y="138" width="4.70174" height="29.9736" rx="2.35087" transform="rotate(30 94.0312 138)" fill="#B4E6F5"/>
<rect x="116" y="154" width="4.70174" height="29.9736" rx="2.35087" transform="rotate(-90 116 154)" fill="#B4E6F5"/>
<rect x="121.081" y="140.553" width="4.70174" height="29.9736" rx="2.35087" transform="rotate(-30 121.081 140.553)" fill="#B4E6F5"/>
<rect x="136.031" y="138" width="4.70174" height="29.9736" rx="2.35087" transform="rotate(30 136.031 138)" fill="#B4E6F5"/>
<rect x="32" y="193" width="4.70174" height="29.9736" rx="2.35087" transform="rotate(-90 32 193)" fill="#B4E6F5"/>
<rect x="37.0812" y="179.553" width="4.70174" height="29.9736" rx="2.35087" transform="rotate(-30 37.0812 179.553)" fill="#B4E6F5"/>
<rect x="52.0312" y="177" width="4.70174" height="29.9736" rx="2.35087" transform="rotate(30 52.0312 177)" fill="#B4E6F5"/>
<rect x="74" y="193" width="4.70174" height="29.9736" rx="2.35087" transform="rotate(-90 74 193)" fill="#B4E6F5"/>
<rect x="79.0812" y="179.553" width="4.70174" height="29.9736" rx="2.35087" transform="rotate(-30 79.0812 179.553)" fill="#B4E6F5"/>
<rect x="94.0312" y="177" width="4.70174" height="29.9736" rx="2.35087" transform="rotate(30 94.0312 177)" fill="#B4E6F5"/>
<rect x="116" y="193" width="4.70174" height="29.9736" rx="2.35087" transform="rotate(-90 116 193)" fill="#B4E6F5"/>
<rect x="121.081" y="179.553" width="4.70174" height="29.9736" rx="2.35087" transform="rotate(-30 121.081 179.553)" fill="#B4E6F5"/>
<rect x="136.031" y="177" width="4.70174" height="29.9736" rx="2.35087" transform="rotate(30 136.031 177)" fill="#B4E6F5"/>
</svg>
