<svg width="80px" height="80px" viewBox="0 0 174 184" fill="none" xmlns="http://www.w3.org/2000/svg">
<path d="M134.309 49.3413C134.292 49.3413 134.275 49.344 134.259 49.344C134.265 49.0067 134.309 48.6787 134.309 48.34C134.309 21.6427 112.667 0 85.9693 0C59.272 0 37.6293 21.6427 37.6293 48.34C37.6293 48.3707 37.6346 48.4013 37.6346 48.4333C16.6933 49.4053 0 66.6414 0 87.824C0 109.631 17.6773 127.308 39.484 127.308H134.309C155.839 127.308 173.292 109.855 173.292 88.3253C173.292 66.7947 155.839 49.3413 134.309 49.3413Z" fill="#62C6EF"/>
<path d="M32.7534 150.649C30.904 150.649 29.4041 149.151 29.4041 147.3V125.013C29.4041 123.163 30.904 121.664 32.7534 121.664C34.6014 121.664 36.1014 123.163 36.1014 125.013V147.3C36.1014 149.151 34.6014 150.649 32.7534 150.649Z" fill="#B4E6F5"/>
<path d="M61.1987 137.981C59.3507 137.981 57.8507 136.484 57.8507 134.633V102.136C57.8507 100.285 59.3507 98.788 61.1987 98.788C63.048 98.788 64.548 100.285 64.548 102.136V134.633C64.548 136.484 63.048 137.981 61.1987 137.981Z" fill="#B4E6F5"/>
<path d="M61.1987 175.313C59.3507 175.313 57.8507 173.816 57.8507 171.965V150.792C57.8507 148.941 59.3507 147.444 61.1987 147.444C63.048 147.444 64.548 148.941 64.548 150.792V171.965C64.548 173.816 63.048 175.313 61.1987 175.313Z" fill="#B4E6F5"/>
<path d="M146.54 157.012C144.691 157.012 143.192 155.515 143.192 153.664V137.795C143.192 135.944 144.691 134.447 146.54 134.447C148.389 134.447 149.888 135.944 149.888 137.795V153.664C149.888 155.515 148.389 157.012 146.54 157.012Z" fill="#B4E6F5"/>
<path d="M118.093 183.776C116.244 183.776 114.745 182.279 114.745 180.428V112.28C114.745 110.429 116.244 108.932 118.093 108.932C119.943 108.932 121.443 110.429 121.443 112.28V180.428C121.443 182.279 119.943 183.776 118.093 183.776Z" fill="#B4E6F5"/>
<path d="M89.6453 149.544C87.796 149.544 86.2974 148.045 86.2974 146.195V126.117C86.2974 124.267 87.796 122.769 89.6453 122.769C91.4947 122.769 92.9933 124.267 92.9933 126.117V146.195C92.9933 148.045 91.4947 149.544 89.6453 149.544Z" fill="#B4E6F5"/>
</svg>
