<svg width="66" height="65" viewBox="0 0 66 65" fill="none" xmlns="http://www.w3.org/2000/svg">
<path d="M50.6899 19.4545C50.6851 19.4545 50.6749 19.4555 50.6701 19.4555C50.6749 19.3292 50.6899 19.2063 50.6899 19.079C50.6899 9.0783 42.5845 0.9729 32.584 0.9729C22.5843 0.9729 14.4779 9.0783 14.4779 19.079C14.4779 19.0909 14.4799 19.1024 14.4799 19.1139C6.63619 19.4785 0.383606 25.9344 0.383606 33.8685C0.383606 42.0363 7.00476 48.6573 15.1726 48.6573H50.6899C58.7556 48.6573 65.2928 42.1202 65.2928 34.0558C65.2928 25.9918 58.7556 19.4545 50.6899 19.4545Z" fill="#62C6EF"/>
<path d="M20.6437 54.5899C21.3178 53.6733 21.1212 52.3838 20.2046 51.7098C19.2881 51.0357 17.9986 51.2323 17.3245 52.1488L10.8891 60.8993C10.215 61.8159 10.4116 63.1053 11.3281 63.7794C12.2447 64.4535 13.5342 64.2569 14.2082 63.3404L20.6437 54.5899Z" fill="#62C6EF"/>
<path d="M34.9897 54.5899C35.6638 53.6733 35.4672 52.3838 34.5507 51.7098C33.6341 51.0357 32.3447 51.2323 31.6706 52.1488L25.2351 60.8993C24.5611 61.8159 24.7576 63.1053 25.6742 63.7794C26.5908 64.4535 27.8802 64.2569 28.5543 63.3404L34.9897 54.5899Z" fill="#62C6EF"/>
<path d="M49.5974 54.5899C50.2714 53.6733 50.0749 52.3838 49.1583 51.7098C48.2417 51.0357 46.9523 51.2323 46.2782 52.1488L39.8428 60.8993C39.1687 61.8159 39.3653 63.1053 40.2818 63.7794C41.1984 64.4535 42.4878 64.2569 43.1619 63.3404L49.5974 54.5899Z" fill="#62C6EF"/>
</svg>
