<svg width="174" height="176" viewBox="0 0 174 176" fill="none" xmlns="http://www.w3.org/2000/svg">
<path d="M134.309 49.3413C134.292 49.3413 134.275 49.3439 134.259 49.3439C134.265 49.0066 134.309 48.6786 134.309 48.34C134.309 21.6426 112.667 -6.65331e-06 85.9693 -6.65331e-06C59.2719 -6.65331e-06 37.6293 21.6426 37.6293 48.34C37.6293 48.372 37.6346 48.4013 37.6346 48.4333C16.6933 49.4053 0 66.6413 0 87.8239C0 109.631 17.6773 127.309 39.484 127.309H134.309C155.839 127.309 173.292 109.855 173.292 88.3253C173.292 66.7946 155.839 49.3413 134.309 49.3413" fill="#62C6EF"/>
<rect x="32.6986" y="137" width="11" height="40" rx="5.5" transform="rotate(36.3322 32.6986 137)" fill="#62C6EF"/>
<rect x="68.6986" y="137" width="11" height="40" rx="5.5" transform="rotate(36.3322 68.6986 137)" fill="#62C6EF"/>
<rect x="88" y="158" width="4.70174" height="29.9736" rx="2.35087" transform="rotate(-90 88 158)" fill="#B4E6F5"/>
<rect x="93.0812" y="144.553" width="4.70174" height="29.9736" rx="2.35087" transform="rotate(-30 93.0812 144.553)" fill="#B4E6F5"/>
<rect x="108.031" y="142" width="4.70174" height="29.9736" rx="2.35087" transform="rotate(30 108.031 142)" fill="#B4E6F5"/>
<rect x="129" y="158" width="4.70174" height="29.9736" rx="2.35087" transform="rotate(-90 129 158)" fill="#B4E6F5"/>
<rect x="134.081" y="144.553" width="4.70174" height="29.9736" rx="2.35087" transform="rotate(-30 134.081 144.553)" fill="#B4E6F5"/>
<rect x="149.031" y="142" width="4.70174" height="29.9736" rx="2.35087" transform="rotate(30 149.031 142)" fill="#B4E6F5"/>
</svg>
