<svg width="80px" height="80px" viewBox="0 0 174 167" fill="none" xmlns="http://www.w3.org/2000/svg">
<path d="M134.304 49.3426C134.291 49.3426 134.277 49.3439 134.264 49.3439C134.264 49.0066 134.304 48.6786 134.304 48.34C134.304 21.6426 112.664 -7.62939e-06 85.9693 -7.62939e-06C59.2719 -7.62939e-06 37.6293 21.6426 37.6293 48.34C37.6293 48.372 37.6346 48.4027 37.6346 48.4333C16.692 49.4067 0 66.6427 0 87.8253C0 109.632 17.6773 127.309 39.484 127.309H134.304C155.837 127.309 173.291 109.856 173.291 88.3253C173.291 66.796 155.837 49.3426 134.304 49.3426Z" fill="#62C6EF"/>
<rect x="30" y="154" width="4.70174" height="29.9736" rx="2.35087" transform="rotate(-90 30 154)" fill="#B4E6F5"/>
<rect x="35.0812" y="140.553" width="4.70174" height="29.9736" rx="2.35087" transform="rotate(-30 35.0812 140.553)" fill="#B4E6F5"/>
<rect x="50.0312" y="138" width="4.70174" height="29.9736" rx="2.35087" transform="rotate(30 50.0312 138)" fill="#B4E6F5"/>
<rect x="72" y="154" width="4.70174" height="29.9736" rx="2.35087" transform="rotate(-90 72 154)" fill="#B4E6F5"/>
<rect x="77.0812" y="140.553" width="4.70174" height="29.9736" rx="2.35087" transform="rotate(-30 77.0812 140.553)" fill="#B4E6F5"/>
<rect x="92.0312" y="138" width="4.70174" height="29.9736" rx="2.35087" transform="rotate(30 92.0312 138)" fill="#B4E6F5"/>
<rect x="114" y="154" width="4.70174" height="29.9736" rx="2.35087" transform="rotate(-90 114 154)" fill="#B4E6F5"/>
<rect x="119.081" y="140.553" width="4.70174" height="29.9736" rx="2.35087" transform="rotate(-30 119.081 140.553)" fill="#B4E6F5"/>
<rect x="134.031" y="138" width="4.70174" height="29.9736" rx="2.35087" transform="rotate(30 134.031 138)" fill="#B4E6F5"/>
</svg>
