<svg width="80px" height="80px" viewBox="0 0 175 191" fill="none" xmlns="http://www.w3.org/2000/svg">
<path d="M135.169 49.5347C135.152 49.5347 135.136 49.5374 135.119 49.5374C135.125 49.2001 135.169 48.8721 135.169 48.5334C135.169 21.8361 113.527 0.193474 86.8294 0.193474C60.132 0.193474 38.4893 21.8361 38.4893 48.5334C38.4893 48.5654 38.4947 48.5948 38.4947 48.6268C17.5533 49.5988 0.859985 66.8348 0.859985 88.0174C0.859985 109.824 18.5373 127.503 40.344 127.503H135.169C156.699 127.503 174.153 110.048 174.153 88.5188C174.153 66.9881 156.699 49.5347 135.169 49.5347Z" fill="#62C6EF"/>
<path d="M128.78 115.675H80.7399L105.099 72.3694H80.7399L46.232 134.529H83.4466L68.56 190.78L128.78 115.675Z" fill="#F8A62C"/>
</svg>
