<svg width="80px" height="80px" viewBox="0 0 174 185" fill="none" xmlns="http://www.w3.org/2000/svg">
<path d="M126.986 133.4L114.683 159.544C111.978 165.292 111.859 172.063 114.886 177.647C117.026 181.597 120.695 184.983 126.986 184.983C133.276 184.983 136.946 181.597 139.086 177.647C142.112 172.063 141.994 165.292 139.288 159.544L126.986 133.4Z" fill="#B4E6F5"/>
<path d="M38.3509 133L26.0483 159.144C23.3429 164.892 23.2243 171.663 26.251 177.247C28.3909 181.197 32.0603 184.583 38.3509 184.583C44.6416 184.583 48.3109 181.197 50.4509 177.247C53.4776 171.663 53.359 164.892 50.6536 159.144L38.3509 133Z" fill="#B4E6F5"/>
<path d="M134.309 49.3426C134.292 49.3426 134.275 49.344 134.259 49.344C134.265 49.0067 134.309 48.68 134.309 48.34C134.309 21.6426 112.667 -7.62939e-06 85.9693 -7.62939e-06C59.2719 -7.62939e-06 37.6293 21.6426 37.6293 48.34C37.6293 48.372 37.6346 48.4027 37.6346 48.4333C16.6933 49.4067 0 66.6427 0 87.8253C0 109.632 17.6773 127.309 39.484 127.309H134.309C155.839 127.309 173.292 109.856 173.292 88.3253C173.292 66.796 155.839 49.3426 134.309 49.3426Z" fill="#62C6EF"/>
<path d="M128.184 99.7038H80.144L104.501 56.3999H80.144L45.6346 118.559H82.8493L67.964 174.809L128.184 99.7038Z" fill="#F8A62C"/>
</svg>
