<svg width="80px" height="80px" viewBox="0 0 174 184" fill="none" xmlns="http://www.w3.org/2000/svg">
<path d="M134.309 49.3413C134.296 49.3413 134.269 49.3439 134.256 49.3439C134.269 49.0066 134.309 48.6786 134.309 48.34C134.309 21.6426 112.669 -7.62939e-06 85.9693 -7.62939e-06C59.2719 -7.62939e-06 37.6293 21.6426 37.6293 48.34C37.6293 48.372 37.6346 48.4013 37.6346 48.4333C16.6933 49.4053 0 66.6413 0 87.8239C0 109.631 17.6773 127.309 39.484 127.309H134.309C155.843 127.309 173.296 109.855 173.296 88.3253C173.296 66.7946 155.843 49.3413 134.309 49.3413Z" fill="#62C6EF"/>
<path d="M48.7825 151.193C48.7825 155.691 45.1372 159.336 40.6412 159.336C36.1439 159.336 32.4985 155.691 32.4985 151.193C32.4985 146.697 36.1439 143.052 40.6412 143.052C45.1372 143.052 48.7825 146.697 48.7825 151.193Z" fill="#B4E6F5"/>
<path d="M48.7825 175.079C48.7825 179.575 45.1372 183.22 40.6412 183.22C36.1439 183.22 32.4985 179.575 32.4985 175.079C32.4985 170.581 36.1439 166.936 40.6412 166.936C45.1372 166.936 48.7825 170.581 48.7825 175.079Z" fill="#B4E6F5"/>
<path d="M79.4533 151.193C79.4533 155.691 75.8079 159.336 71.3106 159.336C66.8146 159.336 63.1693 155.691 63.1693 151.193C63.1693 146.697 66.8146 143.052 71.3106 143.052C75.8079 143.052 79.4533 146.697 79.4533 151.193Z" fill="#B4E6F5"/>
<path d="M79.4533 175.079C79.4533 179.575 75.8079 183.22 71.3106 183.22C66.8146 183.22 63.1693 179.575 63.1693 175.079C63.1693 170.581 66.8146 166.936 71.3106 166.936C75.8079 166.936 79.4533 170.581 79.4533 175.079Z" fill="#B4E6F5"/>
<path d="M110.123 151.193C110.123 155.691 106.477 159.336 101.981 159.336C97.4839 159.336 93.8385 155.691 93.8385 151.193C93.8385 146.697 97.4839 143.052 101.981 143.052C106.477 143.052 110.123 146.697 110.123 151.193Z" fill="#B4E6F5"/>
<path d="M110.123 175.079C110.123 179.575 106.477 183.22 101.981 183.22C97.4839 183.22 93.8385 179.575 93.8385 175.079C93.8385 170.581 97.4839 166.936 101.981 166.936C106.477 166.936 110.123 170.581 110.123 175.079Z" fill="#B4E6F5"/>
<path d="M140.789 151.193C140.789 155.691 137.149 159.336 132.656 159.336C128.149 159.336 124.509 155.691 124.509 151.193C124.509 146.697 128.149 143.052 132.656 143.052C137.149 143.052 140.789 146.697 140.789 151.193Z" fill="#B4E6F5"/>
<path d="M140.789 175.079C140.789 179.575 137.149 183.22 132.656 183.22C128.149 183.22 124.509 179.575 124.509 175.079C124.509 170.581 128.149 166.936 132.656 166.936C137.149 166.936 140.789 170.581 140.789 175.079Z" fill="#B4E6F5"/>
<path d="M128.549 107.304H80.5093L104.867 64H80.5093L46 126.159H83.2146L68.3294 182.409L128.549 107.304Z" fill="#F8A62C"/>
</svg>
