<svg width="80px" height="80px" viewBox="0 0 174 187" fill="none" xmlns="http://www.w3.org/2000/svg">
<path d="M29.3493 186.453C27.5 186.453 26 184.955 26 183.104V137.349C26 135.499 27.5 134 29.3493 134C31.1973 134 32.6973 135.499 32.6973 137.349V183.104C32.6973 184.955 31.1973 186.453 29.3493 186.453Z" fill="#B4E6F5"/>
<path d="M57.7946 186.453C55.9466 186.453 54.4467 184.955 54.4467 183.104V166.176C54.4467 164.325 55.9466 162.828 57.7946 162.828C59.644 162.828 61.144 164.325 61.144 166.176V183.104C61.144 184.955 59.644 186.453 57.7946 186.453Z" fill="#B4E6F5"/>
<path d="M86.2413 186.453C84.392 186.453 82.8933 184.955 82.8933 183.104V137.349C82.8933 135.499 84.392 134 86.2413 134C88.0906 134 89.5893 135.499 89.5893 137.349V183.104C89.5893 184.955 88.0906 186.453 86.2413 186.453Z" fill="#B4E6F5"/>
<path d="M114.689 186.453C112.84 186.453 111.341 184.955 111.341 183.104V166.176C111.341 164.325 112.84 162.828 114.689 162.828C116.539 162.828 118.039 164.325 118.039 166.176V183.104C118.039 184.955 116.539 186.453 114.689 186.453Z" fill="#B4E6F5"/>
<path d="M143.136 186.453C141.287 186.453 139.788 184.955 139.788 183.104V148.084C139.788 146.233 141.287 144.736 143.136 144.736C144.985 144.736 146.484 146.233 146.484 148.084V183.104C146.484 184.955 144.985 186.453 143.136 186.453Z" fill="#B4E6F5"/>
<path d="M134.309 49.3426C134.292 49.3426 134.275 49.344 134.259 49.344C134.265 49.0067 134.309 48.68 134.309 48.34C134.309 21.6426 112.667 -7.62939e-06 85.9693 -7.62939e-06C59.2719 -7.62939e-06 37.6293 21.6426 37.6293 48.34C37.6293 48.372 37.6346 48.4027 37.6346 48.4333C16.6933 49.4067 0 66.6427 0 87.8253C0 109.632 17.6773 127.309 39.484 127.309H134.309C155.839 127.309 173.292 109.856 173.292 88.3253C173.292 66.796 155.839 49.3426 134.309 49.3426Z" fill="#62C6EF"/>
<path d="M128.184 99.7038H80.144L104.501 56.3999H80.144L45.6346 118.559H82.8493L67.964 174.809L128.184 99.7038Z" fill="#F8A62C"/>
</svg>
